<svg width="23" height="22" viewBox="0 0 23 22" fill="none" xmlns="http://www.w3.org/2000/svg">
<path d="M12.5784 16.6078C12.5784 16.8211 12.5152 17.0296 12.3967 17.207C12.2782 17.3843 12.1098 17.5226 11.9127 17.6042C11.7156 17.6858 11.4988 17.7072 11.2896 17.6655C11.0804 17.6239 10.8883 17.5212 10.7374 17.3704C10.5866 17.2196 10.4839 17.0274 10.4423 16.8182C10.4007 16.609 10.422 16.3922 10.5037 16.1951C10.5853 15.9981 10.7235 15.8297 10.9009 15.7112C11.0782 15.5927 11.2867 15.5294 11.5 15.5294C11.786 15.5294 12.0603 15.643 12.2626 15.8453C12.4648 16.0475 12.5784 16.3218 12.5784 16.6078ZM11.5 5.17647C9.2353 5.17647 7.40196 6.82108 7.40196 8.84314V9.27451C7.40196 9.44612 7.47014 9.6107 7.59148 9.73205C7.71283 9.85339 7.87741 9.92157 8.04902 9.92157C8.22063 9.92157 8.38522 9.85339 8.50656 9.73205C8.62791 9.6107 8.69608 9.44612 8.69608 9.27451V8.84314C8.69608 7.535 9.95353 6.47059 11.5 6.47059C13.0465 6.47059 14.3039 7.535 14.3039 8.84314C14.3039 10.1513 13.0465 11.2157 11.5 11.2157C11.3284 11.2157 11.1638 11.2839 11.0425 11.4052C10.9211 11.5265 10.8529 11.6911 10.8529 11.8627V12.7255C10.8529 12.8971 10.9211 13.0617 11.0425 13.183C11.1638 13.3044 11.3284 13.3725 11.5 13.3725C11.6716 13.3725 11.8362 13.3044 11.9575 13.183C12.0789 13.0617 12.1471 12.8971 12.1471 12.7255V12.4645C14.1001 12.1863 15.598 10.6678 15.598 8.84314C15.598 6.82108 13.7647 5.17647 11.5 5.17647ZM22.5 11C22.5 13.1756 21.8549 15.3023 20.6462 17.1113C19.4375 18.9202 17.7195 20.3301 15.7095 21.1627C13.6995 21.9952 11.4878 22.2131 9.35401 21.7886C7.22022 21.3642 5.26021 20.3165 3.72183 18.7782C2.18345 17.2398 1.1358 15.2798 0.711367 13.146C0.28693 11.0122 0.504766 8.80047 1.33733 6.79048C2.16989 4.78049 3.57979 3.06253 5.38873 1.85383C7.19767 0.645138 9.32441 0 11.5 0C14.4163 0.00342494 17.2122 1.16345 19.2744 3.22561C21.3365 5.28777 22.4966 8.08367 22.5 11ZM21.2059 11C21.2059 9.08036 20.6366 7.20382 19.5701 5.6077C18.5037 4.01158 16.9878 2.76755 15.2143 2.03293C13.4408 1.29832 11.4892 1.10611 9.60648 1.48061C7.72372 1.85512 5.9943 2.77951 4.63691 4.1369C3.27952 5.4943 2.35512 7.22372 1.98062 9.10647C1.60611 10.9892 1.79832 12.9408 2.53294 14.7143C3.26755 16.4878 4.51158 18.0036 6.1077 19.0701C7.70383 20.1366 9.58036 20.7059 11.5 20.7059C14.0733 20.703 16.5404 19.6795 18.3599 17.8599C20.1795 16.0404 21.203 13.5733 21.2059 11Z" fill="white"/>
</svg>
