<svg width="22" height="22" viewBox="0 0 22 22" fill="none" xmlns="http://www.w3.org/2000/svg">
<path d="M21.8265 20.9126L16.2896 15.3757C17.8685 13.5599 18.6807 11.202 18.5551 8.79906C18.4294 6.39609 17.3757 4.13577 15.616 2.49457C13.8563 0.853366 11.5281 -0.0404929 9.1222 0.00140937C6.71631 0.0433116 4.42066 1.0177 2.71918 2.71918C1.0177 4.42066 0.0433116 6.71631 0.00140937 9.1222C-0.0404929 11.5281 0.853366 13.8563 2.49457 15.616C4.13577 17.3757 6.39609 18.4294 8.79906 18.5551C11.202 18.6807 13.5599 17.8685 15.3757 16.2896L20.9126 21.8265C21.0352 21.9407 21.1973 22.0029 21.3648 21.9999C21.5323 21.9969 21.6922 21.9291 21.8106 21.8106C21.9291 21.6922 21.9969 21.5323 21.9999 21.3648C22.0029 21.1973 21.9407 21.0352 21.8265 20.9126ZM1.32545 9.29998C1.32545 7.72277 1.79314 6.18097 2.6694 4.86957C3.54565 3.55816 4.7911 2.53605 6.24826 1.93247C7.70541 1.3289 9.30883 1.17098 10.8557 1.47867C12.4026 1.78637 13.8236 2.54587 14.9388 3.66113C16.0541 4.77639 16.8136 6.19732 17.1213 7.74423C17.429 9.29113 17.2711 10.8945 16.6675 12.3517C16.0639 13.8089 15.0418 15.0543 13.7304 15.9306C12.419 16.8068 10.8772 17.2745 9.29998 17.2745C7.18579 17.2719 5.15893 16.431 3.66397 14.936C2.16901 13.441 1.32801 11.4142 1.32545 9.29998Z" fill="white"/>
</svg>
