<svg width="22" height="22" viewBox="0 0 22 22" fill="none" xmlns="http://www.w3.org/2000/svg">
<path d="M12.5098 16.1765C12.5098 16.3481 12.4416 16.5127 12.3203 16.634C12.1989 16.7554 12.0344 16.8235 11.8627 16.8235C11.4623 16.8235 11.0783 16.6645 10.7952 16.3813C10.512 16.0982 10.3529 15.7141 10.3529 15.3137V11C10.3529 10.9428 10.3302 10.8879 10.2898 10.8475C10.2493 10.807 10.1945 10.7843 10.1373 10.7843C9.96565 10.7843 9.80107 10.7161 9.67972 10.5948C9.55837 10.4734 9.4902 10.3089 9.4902 10.1373C9.4902 9.96564 9.55837 9.80106 9.67972 9.67971C9.80107 9.55837 9.96565 9.49019 10.1373 9.49019C10.5377 9.49019 10.9217 9.64926 11.2048 9.93241C11.488 10.2155 11.6471 10.5996 11.6471 11V15.3137C11.6471 15.3709 11.6698 15.4258 11.7102 15.4662C11.7507 15.5067 11.8055 15.5294 11.8627 15.5294C12.0344 15.5294 12.1989 15.5976 12.3203 15.7189C12.4416 15.8403 12.5098 16.0049 12.5098 16.1765ZM10.5686 7.33333C10.7819 7.33333 10.9904 7.27008 11.1678 7.15158C11.3451 7.03308 11.4833 6.86466 11.565 6.6676C11.6466 6.47054 11.668 6.2537 11.6263 6.04451C11.5847 5.83531 11.482 5.64316 11.3312 5.49233C11.1804 5.34151 10.9882 5.2388 10.779 5.19719C10.5698 5.15558 10.353 5.17694 10.1559 5.25856C9.95887 5.34018 9.79045 5.47841 9.67195 5.65576C9.55345 5.8331 9.4902 6.04161 9.4902 6.2549C9.4902 6.54092 9.60382 6.81522 9.80606 7.01747C10.0083 7.21971 10.2826 7.33333 10.5686 7.33333ZM22 11C22 13.1756 21.3549 15.3023 20.1462 17.1113C18.9375 18.9202 17.2195 20.3301 15.2095 21.1627C13.1995 21.9952 10.9878 22.2131 8.85401 21.7886C6.72022 21.3642 4.76021 20.3165 3.22183 18.7782C1.68345 17.2398 0.635804 15.2798 0.211367 13.146C-0.21307 11.0122 0.00476594 8.80047 0.83733 6.79048C1.66989 4.78049 3.07979 3.06253 4.88873 1.85383C6.69767 0.645138 8.82441 0 11 0C13.9163 0.00342494 16.7122 1.16345 18.7744 3.22561C20.8365 5.28777 21.9966 8.08367 22 11ZM20.7059 11C20.7059 9.08036 20.1366 7.20382 19.0701 5.6077C18.0037 4.01158 16.4878 2.76755 14.7143 2.03293C12.9408 1.29832 10.9892 1.10611 9.10648 1.48061C7.22372 1.85512 5.4943 2.77951 4.13691 4.1369C2.77952 5.4943 1.85512 7.22372 1.48062 9.10647C1.10611 10.9892 1.29832 12.9408 2.03294 14.7143C2.76755 16.4878 4.01158 18.0036 5.6077 19.0701C7.20383 20.1366 9.08036 20.7059 11 20.7059C13.5733 20.703 16.0404 19.6795 17.8599 17.8599C19.6795 16.0404 20.703 13.5733 20.7059 11Z" fill="white"/>
</svg>
