<svg width="18" height="22" viewBox="0 0 18 22" fill="none" xmlns="http://www.w3.org/2000/svg">
<path d="M16.1163 20.8H10.702C11.665 19.965 12.5671 19.0606 13.4012 18.094C16.0827 14.974 17.5 11.694 17.5 8.6C17.5 6.31914 16.6045 4.13169 15.0104 2.51888C13.4163 0.906069 11.2543 0 9 0C6.74566 0 4.58365 0.906069 2.98959 2.51888C1.39553 4.13169 0.5 6.31914 0.5 8.6C0.5 11.691 1.91733 14.974 4.59878 18.094C5.43293 19.0606 6.33503 19.965 7.29802 20.8H1.88372C1.72644 20.8 1.5756 20.8632 1.46439 20.9757C1.35318 21.0883 1.2907 21.2409 1.2907 21.4C1.2907 21.5591 1.35318 21.7117 1.46439 21.8243C1.5756 21.9368 1.72644 22 1.88372 22H16.1163C16.2736 22 16.4244 21.9368 16.5356 21.8243C16.6468 21.7117 16.7093 21.5591 16.7093 21.4C16.7093 21.2409 16.6468 21.0883 16.5356 20.9757C16.4244 20.8632 16.2736 20.8 16.1163 20.8ZM1.68605 8.6C1.68605 6.6374 2.45662 4.75518 3.82825 3.36741C5.19989 1.97964 7.06022 1.2 9 1.2C10.9398 1.2 12.8001 1.97964 14.1717 3.36741C15.5434 4.75518 16.314 6.6374 16.314 8.6C16.314 14.562 10.4826 19.493 9 20.651C7.51744 19.493 1.68605 14.562 1.68605 8.6ZM12.7558 8.6C12.7558 7.84843 12.5355 7.11374 12.1228 6.48883C11.7102 5.86393 11.1236 5.37687 10.4373 5.08926C9.751 4.80164 8.99583 4.72639 8.26728 4.87302C7.53872 5.01964 6.8695 5.38156 6.34424 5.91299C5.81898 6.44443 5.46127 7.12153 5.31635 7.85866C5.17143 8.59579 5.24581 9.35984 5.53008 10.0542C5.81435 10.7486 6.29574 11.342 6.91338 11.7596C7.53102 12.1771 8.25717 12.4 9 12.4C9.9961 12.4 10.9514 11.9996 11.6558 11.287C12.3601 10.5744 12.7558 9.60782 12.7558 8.6ZM6.43023 8.6C6.43023 8.08577 6.58095 7.58309 6.86332 7.15552C7.14569 6.72795 7.54703 6.3947 8.01659 6.19791C8.48616 6.00113 9.00285 5.94964 9.50134 6.04996C9.99982 6.15028 10.4577 6.39791 10.8171 6.76152C11.1765 7.12514 11.4212 7.58841 11.5204 8.09276C11.6195 8.59712 11.5687 9.11989 11.3742 9.59498C11.1797 10.0701 10.8503 10.4761 10.4277 10.7618C10.0051 11.0475 9.50825 11.2 9 11.2C8.31846 11.2 7.66483 10.9261 7.1829 10.4385C6.70098 9.95088 6.43023 9.28956 6.43023 8.6Z" fill="white"/>
</svg>
