<svg width="75" height="72" viewBox="0 0 75 72" fill="none" xmlns="http://www.w3.org/2000/svg">
<path d="M74.6561 68.6176C68.8508 58.5939 59.7371 51.5605 49.1473 48.5776C54.2959 45.9625 58.413 41.6911 60.8347 36.4519C63.2564 31.2128 63.8417 25.3114 62.4961 19.6992C61.1505 14.0871 57.9524 9.09131 53.4176 5.51747C48.8828 1.94362 43.2756 0 37.5 0C31.7244 0 26.1172 1.94362 21.5824 5.51747C17.0476 9.09131 13.8495 14.0871 12.5039 19.6992C11.1583 25.3114 11.7436 31.2128 14.1653 36.4519C16.587 41.6911 20.7041 45.9625 25.8527 48.5776C15.2629 51.5568 6.14918 58.5903 0.343877 68.6176C0.18447 68.8682 0.077435 69.1484 0.0292101 69.4413C-0.0190149 69.7343 -0.0074324 70.034 0.0632596 70.3223C0.133952 70.6107 0.262292 70.8818 0.440562 71.1193C0.618831 71.3569 0.843345 71.5559 1.1006 71.7045C1.35785 71.8531 1.64252 71.9481 1.93749 71.9839C2.23246 72.0197 2.53162 71.9955 2.81699 71.9128C3.10236 71.8301 3.36804 71.6906 3.59803 71.5026C3.82803 71.3146 4.0176 71.0821 4.15533 70.819C11.2091 58.6416 23.6716 51.3734 37.5 51.3734C51.3284 51.3734 63.7909 58.6416 70.8447 70.819C70.9824 71.0821 71.172 71.3146 71.402 71.5026C71.632 71.6906 71.8976 71.8301 72.183 71.9128C72.4684 71.9955 72.7676 72.0197 73.0625 71.9839C73.3575 71.9481 73.6422 71.8531 73.8994 71.7045C74.1567 71.5559 74.3812 71.3569 74.5594 71.1193C74.7377 70.8818 74.8661 70.6107 74.9367 70.3223C75.0074 70.034 75.019 69.7343 74.9708 69.4413C74.9226 69.1484 74.8155 68.8682 74.6561 68.6176ZM16.2029 25.6905C16.2029 21.4817 17.4519 17.3674 19.7921 13.8679C22.1323 10.3684 25.4584 7.64085 29.3499 6.03021C33.2415 4.41957 37.5236 3.99815 41.6549 4.81925C45.7861 5.64035 49.5809 7.66709 52.5593 10.6432C55.5378 13.6192 57.5661 17.411 58.3879 21.5389C59.2097 25.6669 58.7879 29.9456 57.176 33.834C55.564 37.7225 52.8343 41.046 49.332 43.3842C45.8298 45.7225 41.7122 46.9706 37.5 46.9706C31.8537 46.9638 26.4407 44.7196 22.4482 40.7303C18.4557 36.741 16.2097 31.3322 16.2029 25.6905Z" fill="#353535"/>
</svg>
