<svg width="18" height="18" viewBox="0 0 18 18" fill="none" xmlns="http://www.w3.org/2000/svg">
<path d="M18 9C18 9.15236 17.9395 9.29848 17.8317 9.40621C17.724 9.51394 17.5779 9.57447 17.4255 9.57447H9.57447V17.4255C9.57447 17.5779 9.51394 17.724 9.40621 17.8317C9.29848 17.9395 9.15236 18 9 18C8.84764 18 8.70152 17.9395 8.59379 17.8317C8.48606 17.724 8.42553 17.5779 8.42553 17.4255V9.57447H0.574468C0.42211 9.57447 0.275991 9.51394 0.168258 9.40621C0.0605241 9.29848 0 9.15236 0 9C0 8.84764 0.0605241 8.70152 0.168258 8.59379C0.275991 8.48606 0.42211 8.42553 0.574468 8.42553H8.42553V0.574468C8.42553 0.42211 8.48606 0.275991 8.59379 0.168258C8.70152 0.0605241 8.84764 0 9 0C9.15236 0 9.29848 0.0605241 9.40621 0.168258C9.51394 0.275991 9.57447 0.42211 9.57447 0.574468V8.42553H17.4255C17.5779 8.42553 17.724 8.48606 17.8317 8.59379C17.9395 8.70152 18 8.84764 18 9Z" fill="black"/>
</svg>
