<svg width="20" height="22" viewBox="0 0 20 22" fill="none" xmlns="http://www.w3.org/2000/svg">
<path d="M18.5106 7.4717H14.8936V4.77358C14.8936 3.50755 14.378 2.29337 13.4603 1.39815C12.5426 0.50293 11.2979 0 10 0C8.70213 0 7.45742 0.50293 6.53969 1.39815C5.62196 2.29337 5.10638 3.50755 5.10638 4.77358V7.4717H1.48936C1.09436 7.4717 0.715534 7.62476 0.436224 7.89722C0.156915 8.16968 0 8.53921 0 8.92453V20.5472C0 20.9325 0.156915 21.302 0.436224 21.5745C0.715534 21.8469 1.09436 22 1.48936 22H18.5106C18.9056 22 19.2845 21.8469 19.5638 21.5745C19.8431 21.302 20 20.9325 20 20.5472V8.92453C20 8.53921 19.8431 8.16968 19.5638 7.89722C19.2845 7.62476 18.9056 7.4717 18.5106 7.4717ZM6.38298 4.77358C6.38298 3.83782 6.76406 2.94038 7.44238 2.2787C8.1207 1.61701 9.04071 1.24528 10 1.24528C10.9593 1.24528 11.8793 1.61701 12.5576 2.2787C13.2359 2.94038 13.617 3.83782 13.617 4.77358V7.4717H6.38298V4.77358ZM18.7234 20.5472C18.7234 20.6022 18.701 20.655 18.6611 20.6939C18.6212 20.7329 18.5671 20.7547 18.5106 20.7547H1.48936C1.43293 20.7547 1.37881 20.7329 1.33891 20.6939C1.29901 20.655 1.2766 20.6022 1.2766 20.5472V8.92453C1.2766 8.86948 1.29901 8.81669 1.33891 8.77777C1.37881 8.73885 1.43293 8.71698 1.48936 8.71698H18.5106C18.5671 8.71698 18.6212 8.73885 18.6611 8.77777C18.701 8.81669 18.7234 8.86948 18.7234 8.92453V20.5472ZM11.0638 14.7358C11.0638 14.9411 11.0014 15.1417 10.8845 15.3124C10.7676 15.483 10.6015 15.616 10.4071 15.6946C10.2127 15.7731 9.99882 15.7937 9.79246 15.7536C9.58609 15.7136 9.39654 15.6148 9.24776 15.4696C9.09898 15.3245 8.99766 15.1396 8.95661 14.9383C8.91556 14.737 8.93663 14.5283 9.01715 14.3387C9.09767 14.1491 9.23402 13.987 9.40897 13.873C9.58391 13.759 9.78959 13.6981 10 13.6981C10.2821 13.6981 10.5527 13.8074 10.7522 14.0021C10.9517 14.1967 11.0638 14.4606 11.0638 14.7358Z" fill="black"/>
</svg>
