<svg width="22" height="16" viewBox="0 0 22 16" fill="none" xmlns="http://www.w3.org/2000/svg">
<path d="M21.7763 9.18036C21.7175 9.22427 21.6506 9.25621 21.5795 9.27437C21.5083 9.29253 21.4343 9.29655 21.3616 9.28621C21.2889 9.27586 21.2189 9.25134 21.1557 9.21406C21.0925 9.17677 21.0373 9.12745 20.9932 9.06891C20.5265 8.44378 19.9189 7.93657 19.2194 7.58814C18.5199 7.2397 17.7481 7.05977 16.9661 7.06283C16.8178 7.06283 16.6755 7.00412 16.5706 6.89961C16.4657 6.79511 16.4068 6.65337 16.4068 6.50558C16.4068 6.35779 16.4657 6.21605 16.5706 6.11155C16.6755 6.00705 16.8178 5.94834 16.9661 5.94834C17.4194 5.94824 17.8636 5.8215 18.2482 5.58251C18.6328 5.34351 18.9425 5.00185 19.142 4.59632C19.3415 4.1908 19.4228 3.73766 19.3768 3.28838C19.3307 2.8391 19.1592 2.41169 18.8815 2.05469C18.6039 1.69769 18.2314 1.42541 17.8062 1.26877C17.3811 1.11214 16.9203 1.07743 16.4764 1.16858C16.0324 1.25974 15.623 1.47311 15.2946 1.78446C14.9663 2.09581 14.7321 2.49265 14.6188 2.92993C14.5817 3.07304 14.4891 3.19561 14.3613 3.27068C14.2335 3.34575 14.081 3.36716 13.9374 3.33021C13.7937 3.29327 13.6707 3.20098 13.5954 3.07366C13.52 2.94634 13.4985 2.79441 13.5356 2.6513C13.6762 2.10653 13.9454 1.60313 14.3209 1.18306C14.6964 0.762992 15.1672 0.438421 15.6941 0.236401C16.221 0.0343821 16.7888 -0.0392325 17.3501 0.0216929C17.9113 0.0826183 18.4498 0.276319 18.9207 0.58665C19.3916 0.896981 19.7812 1.31495 20.0571 1.80573C20.333 2.2965 20.4871 2.84586 20.5066 3.40801C20.5262 3.97016 20.4106 4.52883 20.1694 5.03744C19.9283 5.54605 19.5686 5.98987 19.1204 6.33191C20.2234 6.74196 21.1843 7.46006 21.8881 8.40021C21.9322 8.45876 21.9643 8.52537 21.9825 8.59626C22.0007 8.66715 22.0048 8.74092 21.9944 8.81337C21.984 8.88581 21.9594 8.95551 21.922 9.01847C21.8845 9.08144 21.835 9.13645 21.7763 9.18036ZM16.7042 15.1429C16.741 15.2062 16.7649 15.2762 16.7745 15.3488C16.7842 15.4213 16.7794 15.4951 16.7604 15.5658C16.7415 15.6365 16.7087 15.7028 16.664 15.7609C16.6194 15.819 16.5636 15.8678 16.5 15.9044C16.4152 15.954 16.3186 15.9799 16.2203 15.9797C16.1221 15.9797 16.0256 15.954 15.9405 15.9051C15.8554 15.8562 15.7847 15.7858 15.7356 15.7011C15.2494 14.8804 14.5568 14.2002 13.7262 13.7277C12.8955 13.2552 11.9556 13.0067 10.9991 13.0067C10.0426 13.0067 9.1026 13.2552 8.27196 13.7277C7.44132 14.2002 6.74872 14.8804 6.26254 15.7011C6.22758 15.7676 6.17945 15.8265 6.12106 15.8741C6.06267 15.9217 5.99522 15.957 5.92277 15.9779C5.85033 15.9989 5.77438 16.005 5.69949 15.9959C5.62461 15.9869 5.55234 15.9628 5.48703 15.9252C5.42172 15.8876 5.36472 15.8372 5.31946 15.7771C5.2742 15.717 5.24162 15.6483 5.22367 15.5753C5.20573 15.5023 5.20279 15.4265 5.21503 15.3523C5.22727 15.2782 5.25445 15.2072 5.29492 15.1438C6.05674 13.8397 7.24958 12.8398 8.66949 12.3149C7.89386 11.8131 7.30181 11.075 6.98167 10.2106C6.66153 9.34624 6.63044 8.40191 6.89306 7.51848C7.15567 6.63506 7.69791 5.85989 8.43889 5.30861C9.17987 4.75732 10.0799 4.45947 11.0047 4.45947C11.9294 4.45947 12.8295 4.75732 13.5704 5.30861C14.3114 5.85989 14.8536 6.63506 15.1163 7.51848C15.3789 8.40191 15.3478 9.34624 15.0277 10.2106C14.7075 11.075 14.1155 11.8131 13.3398 12.3149C14.7558 12.8415 15.9447 13.8409 16.7042 15.1429ZM11 11.8923C11.6269 11.8923 12.2397 11.7071 12.7609 11.3601C13.2821 11.0131 13.6883 10.52 13.9282 9.94297C14.1681 9.36597 14.2309 8.73106 14.1086 8.11852C13.9863 7.50598 13.6844 6.94333 13.2412 6.50172C12.7979 6.0601 12.2332 5.75936 11.6183 5.63752C11.0035 5.51567 10.3662 5.57821 9.78709 5.81721C9.20794 6.05621 8.71293 6.46094 8.36466 6.98023C8.0164 7.49951 7.83051 8.11002 7.83051 8.73456C7.83051 9.57204 8.16444 10.3752 8.75883 10.9674C9.35323 11.5596 10.1594 11.8923 11 11.8923ZM5.59322 6.50558C5.59322 6.35779 5.53429 6.21605 5.4294 6.11155C5.32451 6.00705 5.18224 5.94834 5.0339 5.94834C4.58065 5.94819 4.13653 5.82144 3.75196 5.58246C3.36739 5.34348 3.05778 5.00185 2.8583 4.59638C2.65882 4.1909 2.57745 3.73782 2.62344 3.28859C2.66943 2.83936 2.84093 2.41198 3.11847 2.05497C3.39602 1.69797 3.76847 1.42566 4.19355 1.26895C4.61863 1.11224 5.07929 1.07742 5.52323 1.16845C5.96718 1.25947 6.3766 1.4727 6.70503 1.7839C7.03345 2.0951 7.2677 2.49182 7.38119 2.929C7.39955 2.99986 7.43174 3.06642 7.47592 3.12489C7.52011 3.18336 7.57542 3.23258 7.6387 3.26975C7.70197 3.30692 7.77198 3.33131 7.84472 3.34152C7.91746 3.35174 7.9915 3.34758 8.06263 3.32929C8.13375 3.31099 8.20056 3.27892 8.25925 3.2349C8.31793 3.19088 8.36734 3.13578 8.40465 3.07273C8.44196 3.00969 8.46644 2.93994 8.47669 2.86748C8.48694 2.79501 8.48277 2.72124 8.46441 2.65038C8.32381 2.1056 8.05456 1.6022 7.67908 1.18213C7.30361 0.762064 6.83279 0.437492 6.30587 0.235473C5.77895 0.0334535 5.2112 -0.0401615 4.64994 0.0207639C4.08867 0.0816894 3.55015 0.27539 3.07927 0.585721C2.60838 0.896052 2.21877 1.31402 1.9429 1.8048C1.66704 2.29557 1.51291 2.84493 1.49337 3.40708C1.47383 3.96924 1.58945 4.5279 1.83058 5.03651C2.07171 5.54512 2.43136 5.98894 2.87958 6.33098C1.77652 6.74129 0.815575 7.45972 0.111864 8.40021C0.0677937 8.45876 0.0357283 8.52537 0.0174991 8.59626C-0.000730065 8.66715 -0.00476608 8.74092 0.00562149 8.81337C0.0160091 8.88581 0.0406169 8.95551 0.0780398 9.01847C0.115463 9.08144 0.164968 9.13645 0.223729 9.18036C0.28249 9.22427 0.349356 9.25621 0.420509 9.27437C0.491662 9.29253 0.565709 9.29655 0.638422 9.28621C0.711135 9.27586 0.78109 9.25134 0.844293 9.21406C0.907496 9.17677 0.962709 9.12745 1.00678 9.06891C1.47354 8.44378 2.08112 7.93657 2.78058 7.58814C3.48005 7.2397 4.25187 7.05977 5.0339 7.06283C5.18224 7.06283 5.32451 7.00412 5.4294 6.89961C5.53429 6.79511 5.59322 6.65337 5.59322 6.50558Z" fill="white"/>
</svg>
