<svg width="19" height="22" viewBox="0 0 19 22" fill="none" xmlns="http://www.w3.org/2000/svg">
<path d="M18.3372 0H3.31395C2.43504 0 1.59212 0.34086 0.970635 0.947596C0.349148 1.55433 0 2.37724 0 3.23529V21.3529C0 21.5246 0.0698294 21.6891 0.194127 21.8105C0.318424 21.9318 0.487008 22 0.662791 22H16.5698C16.7456 22 16.9141 21.9318 17.0384 21.8105C17.1627 21.6891 17.2326 21.5246 17.2326 21.3529C17.2326 21.1813 17.1627 21.0167 17.0384 20.8954C16.9141 20.7741 16.7456 20.7059 16.5698 20.7059H1.32558V20.4902C1.32558 19.9754 1.53507 19.4816 1.90796 19.1176C2.28085 18.7535 2.7866 18.549 3.31395 18.549H18.3372C18.513 18.549 18.6816 18.4808 18.8059 18.3595C18.9302 18.2382 19 18.0736 19 17.902V0.647059C19 0.475448 18.9302 0.310866 18.8059 0.189519C18.6816 0.068172 18.513 0 18.3372 0ZM17.6744 17.2549H3.31395C2.59674 17.2539 1.89872 17.481 1.32558 17.902V3.23529C1.32558 2.72046 1.53507 2.22672 1.90796 1.86268C2.28085 1.49863 2.7866 1.29412 3.31395 1.29412H17.6744V17.2549Z" fill="black"/>
</svg>
